<?xml version="1.0" encoding="utf-8"?>
<!-- Generator: Adobe Illustrator 16.0.0, SVG Export Plug-In . SVG Version: 6.00 Build 0)  -->
<!DOCTYPE svg PUBLIC "-//W3C//DTD SVG 1.1//EN" "http://www.w3.org/Graphics/SVG/1.1/DTD/svg11.dtd">
<svg version="1.1" id="Layer_1" xmlns="http://www.w3.org/2000/svg" xmlns:xlink="http://www.w3.org/1999/xlink" x="0px" y="0px"
	 width="68px" height="14px" viewBox="0 0 68 14" enable-background="new 0 0 68 14" xml:space="preserve">
<g>
	<path d="M10.767,5.123c0.007,0.094,0.007,0.188,0.007,0.281c0,2.86-2.177,6.156-6.156,6.156c-1.226,0-2.365-0.355-3.322-0.971
		c0.174,0.02,0.341,0.027,0.522,0.027c1.011,0,1.942-0.342,2.686-0.925c-0.951-0.02-1.749-0.643-2.023-1.5
		c0.134,0.021,0.268,0.034,0.409,0.034c0.194,0,0.388-0.027,0.569-0.074C2.467,7.95,1.724,7.079,1.724,6.027c0-0.006,0-0.02,0-0.027
		c0.288,0.161,0.623,0.261,0.978,0.275C2.119,5.886,1.737,5.223,1.737,4.473c0-0.402,0.107-0.771,0.295-1.092
		c1.065,1.313,2.666,2.17,4.461,2.264C6.459,5.484,6.439,5.317,6.439,5.149c0-1.192,0.964-2.164,2.164-2.164
		c0.623,0,1.186,0.261,1.581,0.683c0.489-0.094,0.958-0.274,1.374-0.522c-0.161,0.502-0.502,0.924-0.951,1.192
		c0.435-0.047,0.857-0.167,1.246-0.335C11.557,4.433,11.188,4.814,10.767,5.123z"/>
	<path d="M25.432,7.273c0,2.271-1.474,4.2-3.517,4.883c-0.261,0.047-0.355-0.114-0.355-0.248c0-0.167,0.006-0.723,0.006-1.413
		c0-0.482-0.161-0.791-0.348-0.951c1.146-0.127,2.351-0.563,2.351-2.539c0-0.562-0.201-1.018-0.529-1.38
		c0.054-0.134,0.228-0.656-0.053-1.366c-0.429-0.134-1.414,0.529-1.414,0.529c-0.409-0.114-0.851-0.174-1.286-0.174
		s-0.877,0.06-1.286,0.174c0,0-0.985-0.663-1.414-0.529c-0.281,0.71-0.107,1.232-0.053,1.366c-0.329,0.362-0.529,0.817-0.529,1.38
		c0,1.97,1.199,2.412,2.344,2.539c-0.147,0.134-0.281,0.361-0.328,0.69c-0.294,0.134-1.045,0.361-1.494-0.429
		c-0.281-0.489-0.791-0.529-0.791-0.529c-0.502-0.007-0.034,0.315-0.034,0.315c0.335,0.154,0.57,0.75,0.57,0.75
		c0.301,0.918,1.735,0.61,1.735,0.61c0,0.429,0.006,0.831,0.006,0.958c0,0.134-0.094,0.295-0.355,0.248
		c-2.043-0.683-3.517-2.612-3.517-4.883c0-2.84,2.304-5.145,5.145-5.145S25.432,4.433,25.432,7.273z M17.045,9.437
		c-0.04-0.013-0.074-0.007-0.087,0.014c-0.014,0.026,0.007,0.06,0.047,0.08c0.033,0.02,0.074,0.014,0.087-0.013
		C17.105,9.49,17.085,9.457,17.045,9.437z M17.286,9.638c-0.034-0.034-0.081-0.047-0.107-0.02c-0.026,0.02-0.02,0.067,0.014,0.107
		c0.034,0.034,0.081,0.047,0.107,0.02C17.326,9.725,17.32,9.678,17.286,9.638z M17.5,9.919c-0.027-0.047-0.081-0.067-0.114-0.04
		c-0.034,0.02-0.034,0.074,0,0.121c0.033,0.047,0.087,0.067,0.114,0.047C17.534,10.02,17.534,9.966,17.5,9.919z M17.755,10.2
		c-0.047-0.047-0.107-0.054-0.134-0.02c-0.034,0.027-0.02,0.087,0.027,0.127c0.047,0.047,0.107,0.053,0.134,0.02
		C17.809,10.301,17.795,10.24,17.755,10.2z M18.077,10.388c-0.054-0.013-0.114,0.007-0.127,0.047
		c-0.013,0.041,0.027,0.087,0.087,0.101c0.054,0.02,0.114,0,0.127-0.04C18.177,10.455,18.137,10.408,18.077,10.388z M18.472,10.455
		c-0.06,0-0.107,0.034-0.107,0.074c0,0.047,0.047,0.081,0.114,0.074c0.06,0,0.107-0.033,0.107-0.074
		C18.585,10.481,18.532,10.448,18.472,10.455z M18.854,10.401c-0.06,0.013-0.101,0.053-0.094,0.1
		c0.007,0.041,0.061,0.067,0.121,0.054c0.061-0.013,0.101-0.054,0.094-0.094S18.914,10.395,18.854,10.401z"/>
	<path d="M38.717,10.488c0,1.065-0.864,1.929-1.929,1.929h-6.431c-1.065,0-1.929-0.864-1.929-1.929V4.058
		c0-1.065,0.864-1.929,1.929-1.929h6.431c1.065,0,1.929,0.864,1.929,1.929V10.488z M30.799,3.856c-0.529,0-0.877,0.349-0.877,0.804
		c0,0.442,0.335,0.804,0.857,0.804h0.007c0.542,0,0.877-0.362,0.877-0.804C31.656,4.205,31.328,3.856,30.799,3.856z M31.562,10.743
		V6.094h-1.547v4.648H31.562z M37.129,10.743V8.077c0-1.427-0.764-2.09-1.782-2.09c-0.831,0-1.199,0.462-1.4,0.784h0.014V6.094
		h-1.547c0,0,0.02,0.435,0,4.648h1.547V8.144c0-0.134,0.006-0.274,0.047-0.375c0.114-0.274,0.368-0.562,0.797-0.562
		c0.556,0,0.777,0.422,0.777,1.052v2.485H37.129z"/>
	<path d="M51.024,11.426c-0.081,0.087-0.188,0.134-0.308,0.134h-0.958c-0.228,0-0.415-0.174-0.429-0.402
		c-0.221-3.892-3.322-6.994-7.214-7.221c-0.228-0.013-0.402-0.201-0.402-0.422V2.557c0-0.121,0.047-0.228,0.134-0.308
		c0.081-0.081,0.188-0.121,0.295-0.121c0.007,0,0.013,0,0.02,0c2.345,0.121,4.548,1.105,6.209,2.773
		c1.668,1.661,2.653,3.865,2.773,6.209C51.152,11.225,51.111,11.339,51.024,11.426z M47.602,11.419
		c-0.081,0.094-0.194,0.141-0.315,0.141h-0.904c-0.221,0-0.402-0.167-0.422-0.389c-0.194-2.043-1.815-3.664-3.858-3.858
		c-0.221-0.02-0.389-0.201-0.389-0.422V5.987c0-0.121,0.047-0.234,0.141-0.315c0.074-0.074,0.181-0.114,0.288-0.114
		c0.013,0,0.02,0,0.034,0c1.427,0.114,2.773,0.737,3.785,1.755c1.018,1.012,1.641,2.358,1.755,3.785
		C47.722,11.218,47.682,11.333,47.602,11.419z M43,11.56c-0.71,0-1.286-0.576-1.286-1.286S42.29,8.988,43,8.988
		s1.286,0.576,1.286,1.286S43.709,11.56,43,11.56z"/>
	<path d="M65,5.893c-1.045,0.724-2.097,1.447-3.135,2.177c-0.436,0.301-1.172,0.917-1.715,0.917h-0.007h-0.007
		c-0.542,0-1.279-0.616-1.715-0.917c-1.038-0.73-2.09-1.454-3.128-2.177c-0.476-0.322-1.152-1.079-1.152-1.688
		c0-0.657,0.355-1.219,1.072-1.219h9.86c0.583,0,1.072,0.482,1.072,1.072C66.146,4.808,65.589,5.484,65,5.893z M66.146,11.346
		c0,0.589-0.482,1.072-1.072,1.072h-9.86c-0.589,0-1.072-0.482-1.072-1.072V6.027c0.201,0.221,0.429,0.416,0.677,0.583
		c1.112,0.757,2.237,1.514,3.329,2.311c0.562,0.415,1.259,0.924,1.989,0.924h0.007h0.007c0.73,0,1.427-0.509,1.989-0.924
		c1.092-0.791,2.217-1.554,3.336-2.311c0.241-0.167,0.469-0.362,0.67-0.583V11.346z"/>
</g>
<g>
</g>
<g>
</g>
<g>
</g>
<g>
</g>
<g>
</g>
<g>
</g>
</svg>
